<svg width="150" height="20" viewBox="0 0 150 20" fill="none" xmlns="http://www.w3.org/2000/svg">
<g style="mix-blend-mode:exclusion">
<path d="M105.311 5.2921L107.271 10.9109H103.351L105.311 5.2921ZM103.809 0.130676L96.6218 18.0976H100.346L101.914 14.5043H108.578L110.146 18.0976H113.87L106.683 0.130676H103.809Z" fill="white"/>
<path d="M19.4618 0.588013V11.3029L12.863 0.588013H9.13898V18.0976H12.7324V6.53345L19.3965 18.0976H22.5979V0.588013H19.4618Z" fill="white"/>
<path d="M92.8324 7.7748H89.043V3.72407H92.8324C94.0084 3.72407 94.9231 4.57341 94.9231 5.81477C94.9231 6.99079 94.0084 7.7748 92.8324 7.7748ZM92.8324 0.588013H88.5203H85.4496V18.0976H89.043V10.9109H92.8324C95.7724 10.9109 97.9938 8.75482 97.9938 5.81477C97.9938 2.87472 95.6417 0.588013 92.8324 0.588013Z" fill="white"/>
<path d="M56.7024 7.7748H49.5156V0.588013H45.9222V18.0976H49.5156V11.3682H56.7024V18.0976H60.2958V0.588013H56.7024V7.7748Z" fill="white"/>
<path d="M28.8699 3.72407H34.2274V18.0976H37.8208V3.72407H43.7009V0.588013H28.8699V3.72407Z" fill="white"/>
<path d="M126.545 5.81477C126.545 6.99079 125.63 7.77481 124.454 7.77481H123.474L120.861 3.72407H124.454C125.565 3.72407 126.545 4.63875 126.545 5.81477ZM126.545 10.5842C128.374 9.73484 129.616 8.03614 129.616 5.88011C129.616 2.94006 127.264 0.653351 124.454 0.653351H120.142H116.875V18.163H120.469V10.9762H123.213L127.982 18.163H132.164L126.545 10.5842Z" fill="white"/>
<path d="M146.276 0.588013L142.879 7.90547L138.044 0.588013H134.777V18.0976H137.913V6.40278L144.839 18.0976H149.281L144.969 11.0415L150 0.588013H146.276Z" fill="white"/>
<path d="M69.9 8.68948C70.684 8.55881 71.1413 8.68948 71.468 8.95082C71.86 9.27749 71.664 9.6695 71.5333 9.80017C71.272 10.1268 70.7493 10.2575 69.9 10.1922C69.2466 10.0615 68.724 9.80017 68.2666 9.47349C68.724 9.08149 69.2466 8.82015 69.9 8.68948ZM74.604 14.3082C73.232 15.8109 71.272 15.8763 70.292 15.8109C68.3973 15.7456 67.4173 14.8309 67.0253 13.9816C66.6332 13.1322 66.6332 12.2829 66.7639 11.6295C67.6133 12.1522 68.6586 12.5442 69.8346 12.6749C69.9 12.6749 69.9653 12.6749 70.0306 12.6749C71.664 12.8056 72.84 12.2829 73.4934 11.4989C73.7547 11.1722 73.8854 10.8455 74.016 10.5188C74.212 9.99617 74.212 9.14682 74.0814 8.62415C73.9507 8.23214 73.7547 7.84013 73.4934 7.51346C72.84 6.66411 71.664 6.20677 70.0306 6.27211C69.9653 6.27211 69.9 6.27211 69.8346 6.27211C68.6586 6.40278 67.6786 6.72945 66.7639 7.31746C66.6332 6.66411 66.6986 5.8801 67.0906 5.09609C67.4826 4.24674 68.3973 3.20139 70.2266 3.20139C72.84 3.20139 74.1467 4.57341 74.604 4.96542V1.04535C73.232 0.522676 72.056 0 70.1613 0C67.4173 0.0653344 65.1306 1.56803 64.2159 3.92007C63.4319 5.94543 63.6932 7.84013 64.6079 9.47349C63.6932 11.1069 63.4319 13.2629 64.2812 15.2883C65.1959 17.575 67.4173 19.143 70.2266 19.2083C72.3827 19.2083 74.212 18.4896 74.6694 18.2936V14.3082H74.604Z" fill="white"/>
<path d="M0.5148 11.5642C-0.138544 12.5442 -0.0732099 14.2429 0.5148 15.0269C0.906807 15.6149 1.03748 17.1176 0.841472 18.0323H4.43487C4.76154 17.1176 4.63087 15.5496 4.10819 14.7656C3.58552 13.9162 3.52018 12.5442 4.10819 11.7602C4.82687 10.8455 4.82687 8.82015 4.10819 7.90547C3.52018 7.12145 3.45485 5.16142 4.10819 4.44274C4.6962 3.72406 4.82687 1.43736 4.3042 0.522675H0.580134C1.10281 0.980016 1.03748 3.39739 0.5148 4.1814C-0.138544 5.22675 -0.203879 7.31746 0.5148 8.23214C1.10281 9.08149 1.03748 10.8455 0.5148 11.5642Z" fill="white"/>
</g>
</svg>
